<svg width="861" height="633" viewBox="0 0 861 633" fill="none" xmlns="http://www.w3.org/2000/svg">
<g clip-path="url(#clip0_288_2)">
<path d="M759.25 604.557C759.99 604.591 760.722 604.396 761.348 604C761.974 603.604 762.463 603.025 762.749 602.341C763.035 601.658 763.104 600.903 762.946 600.179C762.789 599.455 762.412 598.797 761.868 598.294C761.777 597.932 761.712 597.672 761.621 597.31C762.329 595.511 763.559 593.964 765.152 592.868C766.745 591.772 768.629 591.177 770.562 591.159C772.496 591.14 774.39 591.7 776.004 592.766C777.617 593.831 778.876 595.355 779.618 597.14C783.9 607.163 789.442 617.54 786.686 628.58C804.892 589.995 798.701 541.998 771.795 509C764.357 504.904 758.329 497.625 756.76 489.173C760.441 490.42 765.03 487.427 762.263 483.55C761.063 482.068 759.852 480.598 758.652 479.116C772.634 464.225 789.293 487.628 773.903 507.725C778.938 514.037 783.299 520.858 786.915 528.077C786.079 520.412 787.076 512.658 789.823 505.453C792.606 498.738 797.823 493.083 802.418 487.278C808.004 480.205 819.501 483.468 820.252 492.443C815.097 494.138 814.427 501.585 820.324 502.604C818.78 519.302 807.871 534.647 792.846 541.97C798.394 557.538 800.561 574.11 799.201 590.582C801.853 571.332 822.517 566.66 836.96 559.009C837.879 558.42 838.95 558.11 840.042 558.119C841.134 558.128 842.2 558.454 843.11 559.058C844.019 559.663 844.733 560.518 845.165 561.522C845.597 562.525 845.727 563.632 845.54 564.708C843.547 565.518 841.639 566.525 839.844 567.713C839.003 568.278 838.358 569.089 837.997 570.036C837.635 570.982 837.575 572.018 837.825 572.999C838.075 573.981 838.622 574.862 839.392 575.521C840.162 576.179 841.117 576.583 842.126 576.678C834.846 594.696 816.024 606.795 796.692 606.727C794.834 614.8 792.143 622.658 788.66 630.174H759.969C759.866 629.855 759.773 629.526 759.681 629.207C762.336 629.374 765.003 629.216 767.62 628.734C760.593 620.415 755.16 616.171 759.249 604.557L759.25 604.557Z" fill="#F2F2F2"/>
<path d="M607.158 607.84H595.327L589.699 562.209L607.16 562.21L607.158 607.84Z" fill="#FFB6B6"/>
<path d="M591.391 608.905V600.885L594.501 601.075L607.161 601.825L610.091 602.005L612.331 628.865L612.451 630.305H604.051L603.781 628.875L602.561 622.375L599.411 628.875L598.721 630.305H576.451C575.125 630.297 573.857 629.766 572.921 628.828C571.985 627.89 571.456 626.62 571.451 625.295C570.511 620.905 589.031 611.415 591.391 608.905Z" fill="#2F2E41"/>
<path d="M745.753 594.963L735.464 600.801L708.05 563.891L723.237 555.275L745.753 594.963Z" fill="#FFB6B6"/>
<path d="M732.56 603.665L728.61 596.695L731.39 595.325L742.78 589.735L745.42 588.435L758.39 607.425L761.44 611.885L757.99 613.845L754.14 616.035L748.92 609.875L749.5 618.665L731.31 628.995H731.3L730.13 629.655C728.975 630.308 727.608 630.475 726.329 630.121C725.051 629.767 723.965 628.919 723.31 627.765C720.33 624.405 731.75 607.025 732.56 603.665Z" fill="#2F2E41"/>
<path d="M563.429 229.398C564.939 229.629 566.381 230.185 567.656 231.028C568.93 231.871 570.006 232.981 570.809 234.281C571.612 235.581 572.123 237.039 572.307 238.556C572.491 240.073 572.343 241.611 571.874 243.065L589.977 258.734L583.138 272.057L557.884 249.571C555.495 248.599 553.546 246.785 552.406 244.472C551.265 242.159 551.013 239.508 551.696 237.022C552.38 234.535 553.952 232.385 556.114 230.98C558.277 229.575 560.879 229.012 563.429 229.398V229.398Z" fill="#FFB6B6"/>
<path d="M582.49 271.475L589.29 258.145L589.99 256.775C597.27 259.335 611.57 267.695 618.09 271.965C620.48 268.635 633.77 254.145 645.26 248.585C645.26 248.575 645.27 248.585 645.27 248.585C646.06 248.205 646.84 247.865 647.61 247.565C649.39 246.85 651.283 246.457 653.2 246.405C654.05 246.4 654.896 246.522 655.71 246.765C656.566 247.016 657.367 247.426 658.07 247.975C659.94 249.415 661.36 251.925 662.16 255.805C662.253 257.646 662.013 259.489 661.45 261.245C658.25 271.855 645.61 283.705 641.14 291.345C640.7 292.525 636.31 304.145 629.38 308.265C629.015 308.486 628.638 308.687 628.25 308.865C627.82 308.925 627.39 308.975 626.94 308.995H626.93C626.228 309.045 625.524 309.055 624.82 309.025C624.46 309.015 624.09 308.985 623.72 308.955C623.64 308.945 623.57 308.945 623.49 308.935C621.182 308.68 618.906 308.184 616.7 307.455C616.45 307.375 616.2 307.295 615.95 307.205C614.055 306.559 612.195 305.811 610.38 304.965C609.33 304.485 608.29 303.965 607.25 303.425C605.99 302.765 604.73 302.065 603.5 301.335C602.44 300.725 601.4 300.085 600.38 299.425V299.415C600.14 299.275 599.9 299.115 599.66 298.945H599.65C590.53 293.015 583.09 286.125 581.66 283.275C580.592 281.685 579.726 279.969 579.08 278.165L582.49 271.475Z" fill="#2F2E41"/>
<path d="M623.879 318.368C623.879 318.368 598.808 346.577 605.11 352.878C611.412 359.18 621.219 360.835 621.219 360.835L633.208 359.911L623.879 318.368Z" fill="#2F2E41"/>
<path d="M654.634 242.696C622.298 261.615 611.425 279.688 626.38 316.057L654.634 242.696Z" fill="#2F2E41"/>
<path d="M683.623 393.941C686.246 392.721 692.762 491.16 693.293 493.633L730.659 563.269L677.475 587.109L642.505 465.687L636.677 510.371L644.448 581.281L610.07 589.595L586.292 587.896L602.806 386.028L634.143 329.207L683.623 393.941Z" fill="#2F2E41"/>
<path d="M657.422 245.485C613.516 278.173 624.237 278.755 623.88 329.208L602.959 385.118C602.959 385.118 676.712 413.682 684.274 394.777C691.836 375.871 657.422 245.485 657.422 245.485Z" fill="#2E4BE5"/>
<path d="M623.311 313.835C623.401 313.515 623.511 313.145 623.631 312.755V312.745C623.821 312.115 624.041 311.425 624.301 310.635C624.461 310.135 624.631 309.595 624.821 309.025C624.941 308.665 625.061 308.295 625.191 307.905C628.711 297.275 635.811 277.455 644.431 255.545V255.535C645.471 252.905 646.531 250.248 647.611 247.565C647.711 247.325 647.801 247.075 647.901 246.835C648.331 245.765 648.771 244.685 649.211 243.605L661.841 230.975L668.651 226.535L683.651 240.385C683.651 240.385 683.641 240.625 683.621 241.095C683.411 245.365 682.381 268.425 682.251 295.685C682.221 302.555 682.241 309.695 682.361 316.865V317.055C682.391 318.935 682.361 320.395 682.271 321.575C682.227 322.414 682.13 323.249 681.981 324.075C681.421 327.155 680.391 327.875 679.841 334.285C679.841 334.285 691.641 349.495 684.791 362.515C684.248 362.596 683.699 362.63 683.151 362.615C680.731 362.655 675.091 362.505 659.581 362.495C656.891 362.475 653.911 362.475 650.601 362.485C628.911 362.485 640.601 349.935 629.011 338.505C628.761 338.255 628.511 338.015 628.241 337.775C627.418 337.031 626.55 336.339 625.641 335.705L623.701 329.685L623.081 327.755L623.071 327.505L623.011 324.835L622.881 319.515L622.791 315.975C622.904 315.248 623.078 314.533 623.311 313.835Z" fill="#2F2E41"/>
<path opacity="0.2" d="M677.296 274.171L680.741 295.671L657.422 305.289L677.296 274.171Z" fill="black"/>
<path d="M642.855 179.643C616.768 194.487 638.184 233.654 664.757 219.707C690.843 204.863 669.427 165.697 642.855 179.643Z" fill="#FFB6B6"/>
<path opacity="0.2" d="M692.059 315.512C678.226 331.814 654.654 334.167 636.751 323.228L692.059 315.512Z" fill="black"/>
<path d="M628.906 187.874C630.734 190.251 634.552 189.136 642.031 190.833C642.015 188.298 642.307 185.77 642.903 183.307C643.459 186.357 644.679 189.249 646.475 191.777C652.969 192.497 645.008 212.224 648.333 226.729C652.617 196.129 661.628 204.146 657.076 210.215C654.162 214.101 656.104 225.757 664.847 219.929C679.271 226.785 699.816 192.731 677.046 176.76C677.453 168.127 667.848 166.764 661.933 169.418C647.578 158.724 631.178 172.426 628.906 187.874Z" fill="#2F2E41"/>
<path d="M614.173 299.307C606.759 299.16 566.933 298.017 560.403 298.298C560.033 297.004 547.653 312.87 547.352 312.969C547.151 313.18 547.005 313.438 546.925 313.718C546.845 313.999 546.835 314.295 546.894 314.58C546.954 314.866 547.081 315.133 547.266 315.359C547.451 315.584 547.688 315.762 547.957 315.876C548.684 316.318 612.888 315.131 613.666 315.286C614.003 315.28 614.331 315.18 614.613 314.996C614.895 314.813 615.119 314.553 615.26 314.247L615.689 313.286C615.734 311.642 616.272 303.238 615.789 301.801C615.907 301.532 615.957 301.237 615.933 300.943C615.91 300.649 615.814 300.366 615.653 300.119C615.493 299.871 615.274 299.668 615.016 299.526C614.757 299.385 614.468 299.309 614.173 299.307Z" fill="#3F3D56"/>
<path opacity="0.17" d="M615.689 313.285C615.312 314.19 614.83 315.328 613.666 315.286L548.634 316.016C548.327 316.012 548.025 315.93 547.759 315.776C547.492 315.623 547.27 315.403 547.113 315.139C546.955 314.874 546.869 314.574 546.861 314.266C546.854 313.959 546.925 313.655 547.069 313.383L615.689 313.285Z" fill="black"/>
<path d="M560.707 298.103C560.007 296.893 542.621 210.865 541.17 210.145L529.299 195.624L528.238 194.826C526.763 194.016 523.224 194.564 523.543 196.817C526.331 210.187 544.268 286.336 544.661 298.208L546.82 313.332C546.859 313.589 546.951 313.836 547.091 314.055C547.23 314.275 547.414 314.463 547.631 314.607C547.848 314.751 548.092 314.848 548.349 314.892C548.605 314.936 548.868 314.926 549.12 314.862C549.739 314.795 550.33 314.568 550.834 314.204C551.339 313.839 551.74 313.349 551.998 312.783C552.159 312.249 561.52 298.413 560.707 298.103Z" fill="#3F3D56"/>
<path opacity="0.17" d="M529.296 195.625L552 312.786C551.24 314.708 547.687 316.054 546.86 313.533C546.846 313.53 523.569 196.889 523.545 196.82C523.297 194.013 527.936 193.924 529.296 195.625Z" fill="black"/>
<path d="M529.981 200.416L541.511 216.487L554.453 277.953L548.437 283.201L529.981 200.416Z" fill="#2E4BE5"/>
<path d="M607.251 303.425C607.491 301.565 607.951 299.855 609.301 299.985C611.291 299.975 610.861 302.685 610.381 304.965C610.125 305.865 609.971 306.791 609.921 307.725L606.731 307.595C607.015 306.221 607.189 304.827 607.251 303.425Z" fill="#2F2E41"/>
<path d="M588.451 302.985C588.471 302.455 588.441 301.775 588.511 301.135C588.621 300.075 588.981 299.155 590.191 299.225C590.414 299.222 590.636 299.267 590.841 299.355C592.131 299.935 591.601 302.285 591.621 303.425L590.581 303.385L588.431 303.305C588.441 303.205 588.451 303.095 588.451 302.985Z" fill="#2F2E41"/>
<path d="M582.081 302.725C582.131 301.325 581.881 298.855 583.821 298.965C585.921 299.005 585.231 301.865 585.251 303.175L584.221 303.135L582.061 303.045C582.071 302.945 582.081 302.835 582.081 302.725Z" fill="#2F2E41"/>
<path d="M575.711 302.475C575.761 301.065 575.511 298.595 577.451 298.715C579.551 298.755 578.861 301.615 578.881 302.915L577.841 302.875L575.691 302.795C575.701 302.695 575.711 302.585 575.711 302.475Z" fill="#2F2E41"/>
<path d="M569.341 302.215C569.391 300.815 569.141 298.345 571.081 298.455C573.181 298.505 572.491 301.355 572.511 302.665L571.481 302.625L569.321 302.535C569.331 302.435 569.341 302.325 569.341 302.215Z" fill="#2F2E41"/>
<path d="M562.971 301.965C563.011 300.705 562.821 298.605 564.161 298.255H564.171C564.346 298.206 564.529 298.189 564.711 298.205C564.859 298.203 565.008 298.223 565.151 298.265H565.161C566.701 298.695 566.121 301.205 566.141 302.405L565.101 302.365L562.951 302.285C562.961 302.185 562.971 302.075 562.971 301.965Z" fill="#2F2E41"/>
<path d="M600.38 299.425V299.415C600.397 299.267 600.423 299.12 600.46 298.975C600.62 298.125 601.03 297.465 602.06 297.525C603.07 297.545 603.43 298.205 603.54 299.045C603.593 299.808 603.579 300.574 603.5 301.335C603.49 301.485 603.49 301.615 603.49 301.735L600.3 301.605C600.35 301.045 600.3 300.205 600.38 299.425Z" fill="#2F2E41"/>
<path d="M594.06 298.815C594.22 297.925 594.63 297.205 595.69 297.275C596.74 297.295 597.09 298.015 597.18 298.895C597.208 299.755 597.188 300.617 597.12 301.475L593.93 301.345C593.99 300.705 593.91 299.675 594.06 298.815Z" fill="#2F2E41"/>
<path d="M587.681 298.665C587.821 297.725 588.211 296.955 589.321 297.015C590.411 297.035 590.741 297.805 590.821 298.735C590.842 298.941 590.849 299.148 590.841 299.355C590.831 300.045 590.741 300.745 590.751 301.225L588.511 301.135L587.561 301.095C587.621 300.475 587.541 299.505 587.681 298.665Z" fill="#2F2E41"/>
<path d="M602.121 303.265C604.221 303.305 603.541 306.165 603.551 307.465L600.361 307.345C600.481 306.035 600.021 303.135 602.121 303.265Z" fill="#2F2E41"/>
<path d="M595.751 303.005C597.851 303.045 597.171 305.905 597.181 307.215L593.991 307.085C594.111 305.785 593.651 302.885 595.751 303.005Z" fill="#2F2E41"/>
<path d="M588.45 302.985C588.724 302.802 589.053 302.72 589.38 302.755C589.619 302.742 589.856 302.793 590.068 302.904C590.279 303.015 590.456 303.181 590.58 303.385C591.15 304.305 590.8 306.025 590.81 306.955L587.62 306.835C587.72 305.775 587.43 303.655 588.45 302.985Z" fill="#2F2E41"/>
<path d="M582.08 302.725C582.353 302.541 582.683 302.459 583.01 302.495C583.251 302.481 583.491 302.534 583.704 302.646C583.918 302.759 584.096 302.928 584.22 303.135C584.77 304.065 584.43 305.775 584.44 306.705L581.25 306.575C581.35 305.525 581.06 303.415 582.08 302.725Z" fill="#2F2E41"/>
<path d="M575.711 302.475C575.984 302.292 576.313 302.21 576.641 302.245C576.879 302.232 577.116 302.283 577.328 302.394C577.539 302.505 577.716 302.671 577.841 302.875C578.411 303.795 578.061 305.515 578.071 306.445L574.881 306.325C574.981 305.265 574.691 303.145 575.711 302.475Z" fill="#2F2E41"/>
<path d="M569.341 302.215C569.613 302.031 569.943 301.949 570.271 301.985C570.512 301.97 570.752 302.022 570.966 302.135C571.179 302.248 571.357 302.417 571.481 302.625C572.031 303.555 571.691 305.265 571.701 306.195L568.511 306.065C568.611 305.015 568.321 302.905 569.341 302.215Z" fill="#2F2E41"/>
<path d="M562.971 301.965C563.244 301.782 563.573 301.7 563.901 301.735C564.139 301.72 564.377 301.771 564.589 301.883C564.8 301.994 564.977 302.16 565.101 302.365C565.661 303.295 565.321 305.005 565.331 305.935L562.141 305.815C562.241 304.755 561.951 302.645 562.971 301.965Z" fill="#2F2E41"/>
<path d="M695.838 165.546C701.646 201.254 732.775 158.979 747.412 194.119C752.014 206.845 744.118 215.949 739.124 226.512C737.984 235.193 749.277 239.597 750.46 247.588C750.789 265.908 721.234 264.787 712.971 253.229C704.482 241.129 714.62 224.896 709.517 211.909C702.345 193.878 673.177 193.744 670.636 172.767C675.557 165.759 688.79 157.733 695.838 165.546Z" fill="#2F2E41"/>
<path d="M420.886 630.562C421.653 632.835 859.727 632.835 860.555 630.567C859.788 628.289 421.715 628.289 420.886 630.562Z" fill="#CCCCCC"/>
<path d="M672.311 169.035C672.501 169.115 672.691 169.195 672.861 169.285H672.871C673.031 169.365 673.191 169.445 673.351 169.535C673.371 169.545 673.381 169.555 673.401 169.565C673.611 169.365 673.821 169.165 674.041 168.965C674.097 169.291 674.084 169.625 674.001 169.945L673.971 170.065C673.771 170.275 673.561 170.475 673.341 170.685C673.141 170.535 672.951 170.375 672.751 170.225C672.63 170.125 672.511 170.025 672.38 169.925C672.36 169.665 672.33 169.365 672.3 169.035H672.311ZM666.291 157.915C670.751 156.895 672.191 162.725 672.621 165.535C674.241 155.335 680.981 158.545 678.651 165.505C677.908 167.566 676.739 169.447 675.221 171.025C675.011 171.265 674.781 171.505 674.541 171.745C674.811 173.145 673.451 172.785 671.611 171.495C670.252 170.529 668.995 169.426 667.861 168.205C664.191 164.355 661.331 159.205 666.291 157.915ZM666.151 163.655C667.527 165.429 669.07 167.067 670.761 168.545C671.291 169.025 671.831 169.485 672.381 169.925C672.391 170.015 672.391 170.095 672.401 170.165C672.439 170.262 672.486 170.356 672.541 170.445C673.101 171.455 673.731 170.905 673.971 170.065C673.991 170.035 674.021 170.005 674.041 169.975C674.84 169.149 675.535 168.229 676.111 167.235C680.241 160.075 673.591 155.205 673.921 168.575C673.981 168.698 674.022 168.829 674.041 168.965C674.097 169.291 674.084 169.625 674.001 169.945L673.971 170.065C673.771 170.275 673.561 170.475 673.341 170.685C673.141 170.535 672.951 170.375 672.751 170.225C672.63 170.125 672.511 170.025 672.38 169.925C672.36 169.665 672.33 169.365 672.3 169.035V169.025C672.04 166.345 671.33 161.525 670.02 160.215C667.141 158.005 663.411 160.395 666.151 163.655ZM672.311 169.035C672.501 169.115 672.691 169.195 672.861 169.285H672.871C673.031 169.365 673.191 169.445 673.351 169.535C673.371 169.545 673.381 169.555 673.401 169.565C673.611 169.365 673.821 169.165 674.041 168.965C674.097 169.291 674.084 169.625 674.001 169.945L673.971 170.065C673.771 170.275 673.561 170.475 673.341 170.685C673.141 170.535 672.951 170.375 672.751 170.225C672.63 170.125 672.511 170.025 672.38 169.925C672.36 169.665 672.33 169.365 672.3 169.035H672.311Z" fill="#2F2E41"/>
<path d="M521.5 255.13C522.959 255.13 524.358 255.71 525.389 256.741C526.421 257.773 527 259.172 527 260.63V313.836H632.5C633.959 313.836 635.358 314.416 636.389 315.447C637.421 316.479 638 317.878 638 319.336C638 320.795 637.421 322.194 636.389 323.226C635.358 324.257 633.959 324.836 632.5 324.836H527V630.837H516V260.63C516 259.172 516.579 257.773 517.611 256.741C518.642 255.71 520.041 255.13 521.5 255.13V255.13Z" fill="#E6E6E6"/>
<path d="M612.616 310.257C613.641 309.124 614.9 308.227 616.306 307.628C617.711 307.03 619.23 306.743 620.757 306.79C622.284 306.836 623.783 307.213 625.15 307.895C626.517 308.578 627.72 309.549 628.674 310.742L651.725 304.27L659.074 317.319L626.394 326.001C624.266 327.458 621.678 328.085 619.12 327.762C616.561 327.439 614.21 326.189 612.512 324.248C610.814 322.307 609.886 319.811 609.905 317.233C609.925 314.654 610.889 312.172 612.616 310.257L612.616 310.257Z" fill="#FFB6B6"/>
<path d="M664.04 294.925C665.71 294.055 667.38 293.205 669.01 292.415C672.55 290.665 675.84 289.135 678.26 288.095C677.071 284.49 676.129 280.808 675.44 277.075C672.6 262.755 670.67 240.435 683.62 241.095C685.494 241.23 687.333 241.676 689.06 242.415C699.15 248.025 702.61 270.335 707.13 279.545C707.92 280.615 715.94 291.735 714.65 299.965C710.99 307.965 699.35 314.805 688.44 319.255L688.43 319.265C686.33 320.125 684.25 320.895 682.27 321.575C680.01 322.345 677.86 322.985 675.93 323.485C672.08 324.485 669.07 324.935 667.62 324.735C665.704 324.749 663.793 324.527 661.93 324.075L659.64 320.035L658.23 317.535L650.86 304.515L650.1 303.175C654.538 300.086 659.197 297.329 664.04 294.925V294.925Z" fill="#2F2E41"/>
<path d="M162.731 364.615C185.591 373.945 211.431 381.055 240.511 385.435C259.412 388.23 278.469 389.847 297.571 390.275C314.291 390.695 331.897 390.318 350.391 389.145V23.055C350.388 21.2215 349.658 19.4639 348.36 18.1684C347.063 16.8728 345.304 16.1451 343.471 16.145L340.711 16.155L329.641 16.185H329.451L32.2706 16.925H30.9207L20.1807 16.955C18.6406 21.915 17.2073 27.025 15.8806 32.285C-10.8793 138.575 8.88065 301.825 162.731 364.615Z" fill="#F2F2F2"/>
<path d="M284.103 170.218C283.926 182.33 302.951 182.331 302.773 170.218C302.95 158.106 283.924 158.106 284.103 170.218Z" fill="#2E4BE5"/>
<path d="M119.801 185.335H299.991C300.727 185.335 301.432 185.627 301.953 186.148C302.473 186.668 302.766 187.374 302.766 188.11C302.766 188.846 302.473 189.552 301.953 190.072C301.432 190.593 300.727 190.885 299.991 190.885H119.801C116.151 190.945 116.241 185.275 119.801 185.335Z" fill="#CCCCCC"/>
<path d="M183.861 196.315H299.991C300.728 196.315 301.435 196.608 301.956 197.129C302.478 197.651 302.771 198.358 302.771 199.095C302.771 199.832 302.478 200.539 301.956 201.061C301.435 201.582 300.728 201.875 299.991 201.875H183.861C180.231 201.925 180.291 196.265 183.861 196.315Z" fill="#CCCCCC"/>
<path d="M119.801 102.835H299.991C300.728 102.835 301.435 103.128 301.956 103.649C302.478 104.171 302.771 104.878 302.771 105.615C302.771 106.352 302.478 107.059 301.956 107.581C301.435 108.102 300.728 108.395 299.991 108.395H119.801C116.151 108.445 116.241 102.785 119.801 102.835Z" fill="#CCCCCC"/>
<path d="M183.861 113.825H299.991C300.728 113.825 301.435 114.118 301.956 114.639C302.478 115.161 302.771 115.868 302.771 116.605C302.771 117.342 302.478 118.049 301.956 118.571C301.435 119.092 300.728 119.385 299.991 119.385H183.861C180.231 119.435 180.291 113.775 183.861 113.825Z" fill="#CCCCCC"/>
<path d="M183.861 125.335H299.991C300.728 125.335 301.435 125.628 301.956 126.149C302.478 126.671 302.771 127.378 302.771 128.115C302.771 128.852 302.478 129.559 301.956 130.081C301.435 130.602 300.728 130.895 299.991 130.895H183.861C180.231 130.945 180.291 125.285 183.861 125.335Z" fill="#CCCCCC"/>
<path d="M284.103 242.158C283.926 254.27 302.951 254.27 302.773 242.157C302.95 230.046 283.924 230.046 284.103 242.158Z" fill="#2E4BE5"/>
<path d="M119.801 257.265H299.991C300.728 257.265 301.435 257.558 301.956 258.079C302.478 258.601 302.771 259.308 302.771 260.045C302.771 260.782 302.478 261.489 301.956 262.011C301.435 262.532 300.728 262.825 299.991 262.825H119.801C116.151 262.875 116.241 257.215 119.801 257.265Z" fill="#CCCCCC"/>
<path d="M183.861 268.255H299.991C300.728 268.255 301.435 268.548 301.956 269.069C302.478 269.591 302.771 270.298 302.771 271.035C302.771 271.772 302.478 272.479 301.956 273.001C301.435 273.522 300.728 273.815 299.991 273.815H183.861C180.231 273.865 180.291 268.205 183.861 268.255Z" fill="#CCCCCC"/>
<path d="M287.07 87.7987C286.895 99.8202 305.778 99.8203 305.601 87.7978C305.777 75.7771 286.893 75.777 287.07 87.7987Z" fill="#2E4BE5"/>
<path d="M27.5357 18.2689C28.97 16.8304 342 21.0357 341.643 16.814C343.184 15.222 18.9527 11.5806 27.5357 18.2689Z" fill="#CACACA"/>
<path d="M356.853 32.2944C347.935 32.2944 340.706 25.065 340.706 16.1472C340.706 7.22934 347.935 0 356.853 0C365.771 0 373 7.22934 373 16.1472C373 25.065 365.771 32.2944 356.853 32.2944Z" fill="#CACACA"/>
<path d="M16.1472 32.2944C7.22937 32.2944 0 25.065 0 16.1472C0 7.22934 7.22937 0 16.1472 0C25.0651 0 32.2944 7.22934 32.2944 16.1472C32.2944 25.065 25.0651 32.2944 16.1472 32.2944Z" fill="#CACACA"/>
<path d="M162.731 364.615C185.591 373.945 211.431 381.055 240.511 385.435C259.412 388.23 278.469 389.847 297.571 390.275C314.771 390.075 332.377 389.698 350.391 389.145V376.385C326.141 356.035 222.241 352.785 162.731 364.615Z" fill="#CACACA"/>
</g>
<defs>
<clipPath id="clip0_288_2">
<rect width="860.555" height="632.267" fill="white" transform="matrix(-1 0 0 1 860.555 0)"/>
</clipPath>
</defs>
</svg>
