<svg width="70" height="70" viewBox="0 0 70 70" fill="none" xmlns="http://www.w3.org/2000/svg">
<rect width="70" height="70" rx="16" fill="#FFEDA3"/>
<g clip-path="url(#clip0_147_38)">
<path d="M35.5 31.7095C33.5257 31.7095 31.9154 33.3198 31.9154 35.294C31.9154 37.2683 33.5257 38.8786 35.5 38.8786C37.4742 38.8786 39.0845 37.2683 39.0845 35.294C39.0845 33.3198 37.4742 31.7095 35.5 31.7095ZM35.5 37.2242C34.4356 37.2242 33.5698 36.3584 33.5698 35.294C33.5698 34.2297 34.4356 33.3639 35.5 33.3639C36.5643 33.3639 37.4301 34.2297 37.4301 35.294C37.4301 36.3584 36.5643 37.2242 35.5 37.2242Z" fill="#0A81AB"/>
<path d="M24.4706 31.158C24.9283 31.158 25.2978 30.7885 25.2978 30.3308V26.7462H28.8823C29.3401 26.7462 29.7095 26.3767 29.7095 25.919C29.7095 25.4613 29.3401 25.0918 28.8823 25.0918H24.4706C24.0129 25.0918 23.6434 25.4613 23.6434 25.919V30.3308C23.6434 30.7885 24.0129 31.158 24.4706 31.158Z" fill="#0A81AB"/>
<path d="M24.4706 45.4964H28.8823C29.3401 45.4964 29.7095 45.1269 29.7095 44.6691C29.7095 44.2114 29.3401 43.8419 28.8823 43.8419H25.2978V40.2574C25.2978 39.7997 24.9283 39.4302 24.4706 39.4302C24.0129 39.4302 23.6434 39.7997 23.6434 40.2574V44.6691C23.6434 45.1269 24.0129 45.4964 24.4706 45.4964Z" fill="#0A81AB"/>
<path d="M46.5294 39.4302C46.0717 39.4302 45.7022 39.7997 45.7022 40.2574V43.8419H42.1176C41.6599 43.8419 41.2904 44.2114 41.2904 44.6691C41.2904 45.1269 41.6599 45.4964 42.1176 45.4964H46.5294C46.9871 45.4964 47.3566 45.1269 47.3566 44.6691V40.2574C47.3566 39.7997 46.9871 39.4302 46.5294 39.4302Z" fill="#0A81AB"/>
<path d="M46.5294 25.0918H42.1176C41.6599 25.0918 41.2904 25.4613 41.2904 25.919C41.2904 26.3767 41.6599 26.7462 42.1176 26.7462H45.7022V30.3308C45.7022 30.7885 46.0717 31.158 46.5294 31.158C46.9871 31.158 47.3566 30.7885 47.3566 30.3308V25.919C47.3566 25.4613 46.9871 25.0918 46.5294 25.0918Z" fill="#0A81AB"/>
</g>
<defs>
<clipPath id="clip0_147_38">
<rect width="25" height="20.5882" fill="white" transform="translate(23 25)"/>
</clipPath>
</defs>
</svg>
