<svg width="21" height="21" viewBox="0 0 21 21" fill="none" xmlns="http://www.w3.org/2000/svg">
<path d="M5.92892 20.5111C4.63672 20.3901 3.49607 19.8644 2.58021 18.9677C1.77938 18.1837 1.27638 17.2495 1.06379 16.1513C1.0024 15.8342 0.996582 15.3647 0.996582 10.7262C0.996582 6.08765 1.0024 5.61809 1.06379 5.30098C1.27638 4.20287 1.77938 3.26867 2.58021 2.48463C3.38105 1.70059 4.33525 1.20813 5.45689 1C5.78079 0.9399 6.2604 0.934204 10.9983 0.934204C15.7361 0.934204 16.2157 0.939894 16.5396 1C17.6613 1.20813 18.6155 1.70059 19.4163 2.48463C20.2171 3.26867 20.7201 4.20287 20.9327 5.30098C20.9941 5.61809 20.9999 6.08765 20.9999 10.7262C20.9999 15.3647 20.9941 15.8342 20.9327 16.1513C20.7201 17.2495 20.2171 18.1837 19.4163 18.9677C18.778 19.5926 18.1026 19.9999 17.255 20.2711C16.4604 20.5253 16.7813 20.5122 11.1744 20.5193C8.37551 20.5228 6.01504 20.5192 5.92892 20.5111V20.5111ZM11.6442 16.0493C13.8935 15.7805 15.7407 14.1938 16.3022 12.0484C17.0503 9.18915 15.2778 6.2681 12.3488 5.53349C10.4458 5.05621 8.45208 5.60945 7.07976 6.99557C6.37992 7.70245 5.93906 8.46884 5.69437 9.40396C5.08154 11.746 6.14488 14.1785 8.3135 15.3957C9.29854 15.9485 10.5055 16.1854 11.6442 16.0493ZM10.4307 14.9008C8.91177 14.697 7.59437 13.6937 7.02268 12.3054C6.78203 11.7209 6.71879 11.3923 6.71879 10.7262C6.71879 10.06 6.78203 9.73139 7.02268 9.14697C7.4544 8.0985 8.31432 7.25661 9.38524 6.83394C9.98219 6.59834 10.3178 6.53643 10.9983 6.53643C11.6787 6.53643 12.0143 6.59834 12.6113 6.83394C13.6822 7.25661 14.5421 8.0985 14.9738 9.14697C15.2145 9.73139 15.2777 10.06 15.2777 10.7262C15.2777 11.3923 15.2145 11.7209 14.9738 12.3054C14.5421 13.3538 13.6822 14.1957 12.6113 14.6184C12.3808 14.7094 12.0525 14.8115 11.8817 14.8455C11.4939 14.9225 10.7918 14.9492 10.4307 14.9008ZM17.0001 6.56812C17.3241 6.4855 17.5078 6.38271 17.741 6.15375C18.6746 5.23676 18.1575 3.69105 16.8472 3.48227C15.7914 3.31403 14.8418 4.25427 15.0229 5.28852C15.1849 6.21306 16.0915 6.79981 17.0001 6.56812ZM16.4129 5.41573C16.1623 5.29093 16.0997 4.93397 16.2968 4.75273C16.5493 4.52045 16.9322 4.61109 17.0214 4.92427C17.1217 5.27626 16.7446 5.58086 16.4129 5.41573Z" fill="white"/>
</svg>
