<svg width="70" height="70" viewBox="0 0 70 70" fill="none" xmlns="http://www.w3.org/2000/svg">
<rect width="70" height="70" rx="16" fill="#FFEDA3"/>
<path d="M34.5489 21.1631C34.8483 20.2418 36.1517 20.2418 36.4511 21.1631L38.4779 27.4012C38.8796 28.6373 40.0314 29.4742 41.3311 29.4742H47.8902C48.859 29.4742 49.2617 30.7138 48.478 31.2832L43.1716 35.1385C42.1201 35.9025 41.6801 37.2566 42.0818 38.4926L44.1086 44.7307C44.408 45.6521 43.3535 46.4182 42.5698 45.8488L37.2634 41.9934C36.2119 41.2295 34.7881 41.2295 33.7366 41.9934L28.4302 45.8488C27.6465 46.4182 26.592 45.6521 26.8914 44.7307L28.9182 38.4926C29.3199 37.2566 28.8799 35.9025 27.8284 35.1385L22.522 31.2832C21.7383 30.7138 22.141 29.4742 23.1098 29.4742H29.6689C30.9686 29.4742 32.1204 28.6373 32.5221 27.4012L34.5489 21.1631Z" stroke="#0A81AB" stroke-width="2"/>
</svg>
