<svg width="99" height="69" viewBox="0 0 99 69" fill="none" xmlns="http://www.w3.org/2000/svg">
<g clip-path="url(#clip0_147_85)">
<rect x="30.2578" y="16.2251" width="37.2741" height="37.2741" fill="white"/>
<path d="M31.341 68.8874C22.341 68.5498 15.3067 67.996 12.0551 67.369C6.37767 66.2742 2.78057 62.6933 1.56629 56.9273C0.436757 51.5637 0 45.3231 0 34.5474C0 20.3414 0.920448 12.0131 2.91223 8.197C4.55775 5.04435 7.83202 2.54964 11.3331 1.78101C16.5233 0.641577 30.2569 -0.00289323 49.2862 9.76509e-06C71.9693 0.00351792 85.2245 0.825124 89.447 2.48948C92.7252 3.78166 95.5826 6.88389 96.6361 10.2947C99.3298 19.0158 99.5422 46.4055 97.0017 57.4429C95.8693 62.3624 92.7082 65.8182 88.1566 67.1123C85.977 67.732 80.8996 68.2511 72.5943 68.7032C67.5829 68.9761 37.3085 69.1112 31.341 68.8874ZM52.3043 42.0058C59.2663 37.9965 64.9529 34.6318 64.9413 34.5287C64.9234 34.3699 39.8326 19.7993 39.5771 19.7993C39.5284 19.7993 39.4885 26.4359 39.4885 34.5474C39.4885 42.6588 39.524 49.2954 39.5674 49.2954C39.6107 49.2954 45.3424 46.0151 52.3043 42.0058Z" fill="#FF0000"/>
</g>
<defs>
<clipPath id="clip0_147_85">
<rect width="98.7877" height="69" fill="white"/>
</clipPath>
</defs>
</svg>
