<svg width="70" height="70" viewBox="0 0 70 70" fill="none" xmlns="http://www.w3.org/2000/svg">
<rect width="70" height="70" rx="16" fill="#FFEDA3"/>
<path d="M49.8281 29.468L43.4779 23.1505C43.3797 23.0196 43.216 22.9541 43.0524 22.9541H38.5352C38.2406 22.9541 37.9787 23.1832 37.946 23.5106C37.8478 25.049 36.5385 26.2602 35 26.2602C33.4615 26.2602 32.1522 25.049 32.054 23.5106C32.0213 23.216 31.7921 22.9541 31.4648 22.9541H26.9804C26.8494 22.9541 26.6858 23.0196 26.5548 23.1178L20.1718 29.468C19.9427 29.6971 19.9427 30.0572 20.1718 30.2863L25.1146 35.2291C25.3437 35.4582 25.7038 35.4582 25.9329 35.2291L26.3912 34.7708V46.4566C26.3912 46.7839 26.653 47.0458 26.9804 47.0458H43.0524C43.3797 47.0458 43.6416 46.7839 43.6416 46.4566V34.8035L44.0671 35.2291C44.2962 35.4582 44.6563 35.4582 44.8854 35.2291L49.8281 30.2863C50.0573 30.0572 50.0573 29.6971 49.8281 29.468ZM44.4599 33.9852L43.4452 32.9705C43.2815 32.8068 43.0196 32.7413 42.7905 32.8395C42.5614 32.9377 42.4304 33.1341 42.4304 33.396V45.9001H27.5696V33.3633C27.5696 33.1341 27.4386 32.905 27.2095 32.8068C26.9804 32.7086 26.7512 32.7741 26.5548 32.9377L25.5074 33.9852L21.4157 29.8935L27.1768 24.1325H30.9411C31.3666 25.9983 33.036 27.4058 35 27.4058C36.964 27.4058 38.6661 25.9983 39.0262 24.0998H42.7905L48.5516 29.8608L44.4599 33.9852Z" fill="#0A81AB"/>
</svg>
