<svg width="25" height="20" viewBox="0 0 25 20" fill="none" xmlns="http://www.w3.org/2000/svg">
<g clip-path="url(#clip0_254_142)">
<path d="M6.85745 19.9895C5.11385 19.8548 3.64781 19.5207 2.23446 18.936C1.74646 18.7342 0.629819 18.1702 0.250418 17.9341L0 17.7782L0.876159 17.7964C2.17004 17.8232 3.20047 17.6771 4.33048 17.3065C4.90398 17.1184 5.80071 16.7218 6.23142 16.4658C6.63826 16.2239 7.36309 15.7229 7.36309 15.6835C7.36309 15.6654 7.19515 15.6371 6.98988 15.6207C5.63372 15.512 4.24422 14.6927 3.39304 13.4998C3.17487 13.1941 2.81658 12.5154 2.76508 12.3102L2.73568 12.1931H3.56858C4.1008 12.1931 4.50538 12.1694 4.68927 12.1273L4.97705 12.0614L4.59296 11.95C2.59335 11.3698 1.09683 9.54291 0.97254 7.53026L0.943309 7.05695L1.1314 7.13843C1.87364 7.45995 2.53469 7.64007 2.9782 7.64163L3.19222 7.64232L3.0475 7.53397C1.85515 6.64127 1.14591 5.37309 1.00743 3.88613C0.960773 3.38518 1.01804 2.68699 1.1466 2.18963C1.24559 1.80665 1.62306 0.935147 1.67955 0.959186C1.69699 0.96661 1.86351 1.14605 2.04958 1.35793C4.18466 3.78914 7.17837 5.45943 10.3729 6.00176C10.9389 6.09786 12.0317 6.21618 12.0632 6.18477C12.0719 6.17603 12.0555 6.01824 12.0266 5.83413C11.9515 5.3543 12.0046 4.23568 12.1225 3.8139C12.2621 3.31443 12.3513 3.09037 12.5864 2.64841C14.1174 -0.229618 18.0226 -0.895945 20.4092 1.31364L20.7001 1.58288L21.0503 1.5048C21.8111 1.33522 22.8631 0.939144 23.5315 0.570565C23.7236 0.46469 23.8804 0.403502 23.8801 0.434593C23.8787 0.570655 23.5325 1.26734 23.2787 1.64482C22.9774 2.09306 22.2782 2.7939 21.9273 2.99959C21.8074 3.06985 21.7157 3.13378 21.7236 3.14166C21.7523 3.17031 22.7147 2.97944 23.1832 2.85218C23.4476 2.78037 23.8568 2.64734 24.0925 2.55657C24.3281 2.46579 24.5287 2.39927 24.5382 2.40875C24.5477 2.41822 24.4101 2.61908 24.2325 2.85508C23.8086 3.41825 23.0516 4.19727 22.4969 4.64102L22.0522 4.99681L22.0804 5.3444C22.1133 5.74983 22.0346 6.95428 21.9273 7.68611C21.404 11.2556 19.4156 14.7682 16.6826 16.9509C14.5716 18.6368 12.2342 19.5921 9.40973 19.9235C8.95148 19.9773 7.26445 20.0209 6.85745 19.9894V19.9895Z" fill="white"/>
</g>
<defs>
<clipPath id="clip0_254_142">
<rect width="24.5387" height="20" fill="white"/>
</clipPath>
</defs>
</svg>
